HIERARCHY
ROOT root
{
	OFFSET 0.000000 0.000000 0.000000
	CHANNELS 6 Xposition Yposition Zposition Xrotation Yrotation Zrotation
	JOINT pelvis
	{
		OFFSET 0.000000 0.050100 0.916700
		CHANNELS 6 Xposition Yposition Zposition Xrotation Yrotation Zrotation
		JOINT spine_01
		{
			OFFSET 0.000000 -0.034500 0.133800
			CHANNELS 6 Xposition Yposition Zposition Xrotation Yrotation Zrotation
			JOINT spine_02
			{
				OFFSET -0.000000 -0.015200 0.123100
				CHANNELS 6 Xposition Yposition Zposition Xrotation Yrotation Zrotation
				JOINT spine_03
				{
					OFFSET -0.000000 0.004500 0.141200
					CHANNELS 6 Xposition Yposition Zposition Xrotation Yrotation Zrotation
					JOINT neck_01
					{
						OFFSET 0.000000 0.035467 0.161600
						CHANNELS 6 Xposition Yposition Zposition Xrotation Yrotation Zrotation
						JOINT head
						{
							OFFSET -0.000000 -0.045467 0.092300
							CHANNELS 6 Xposition Yposition Zposition Xrotation Yrotation Zrotation
							JOINT head_leaf
							{
								OFFSET -0.000000 -0.002685 0.082543
								CHANNELS 6 Xposition Yposition Zposition Xrotation Yrotation Zrotation
								End Site
								{
									OFFSET -0.000000 0.000000 0.082587
								}
							}
						}
					}
					JOINT clavicle_l
					{
						OFFSET 0.018800 -0.076300 0.143100
						CHANNELS 6 Xposition Yposition Zposition Xrotation Yrotation Zrotation
						JOINT upperarm_l
						{
							OFFSET 0.173100 0.136800 -0.017100
							CHANNELS 6 Xposition Yposition Zposition Xrotation Yrotation Zrotation
							JOINT lowerarm_l
							{
								OFFSET 0.274400 0.004700 0.000000
								CHANNELS 6 Xposition Yposition Zposition Xrotation Yrotation Zrotation
								JOINT hand_l
								{
									OFFSET 0.272600 -0.004700 -0.000000
									CHANNELS 6 Xposition Yposition Zposition Xrotation Yrotation Zrotation
									JOINT index_01_l
									{
										OFFSET 0.113505 -0.046028 -0.002000
										CHANNELS 6 Xposition Yposition Zposition Xrotation Yrotation Zrotation
										JOINT index_02_l
										{
											OFFSET 0.037675 -0.006459 -0.000000
											CHANNELS 6 Xposition Yposition Zposition Xrotation Yrotation Zrotation
											JOINT index_03_l
											{
												OFFSET 0.027202 -0.005757 0.000000
												CHANNELS 6 Xposition Yposition Zposition Xrotation Yrotation Zrotation
												JOINT index_04_leaf_l
												{
													OFFSET 0.023662 -0.004705 0.000000
													CHANNELS 6 Xposition Yposition Zposition Xrotation Yrotation Zrotation
													End Site
													{
														OFFSET 0.023793 -0.003991 0.000000
													}
												}
											}
										}
									}
									JOINT middle_01_l
									{
										OFFSET 0.118041 -0.020533 0.000400
										CHANNELS 6 Xposition Yposition Zposition Xrotation Yrotation Zrotation
										JOINT middle_02_l
										{
											OFFSET 0.041479 -0.001286 0.000000
											CHANNELS 6 Xposition Yposition Zposition Xrotation Yrotation Zrotation
											JOINT middle_03_l
											{
												OFFSET 0.033079 -0.003702 0.000000
												CHANNELS 6 Xposition Yposition Zposition Xrotation Yrotation Zrotation
												JOINT middle_04_leaf_l
												{
													OFFSET 0.032483 -0.002781 -0.000000
													CHANNELS 6 Xposition Yposition Zposition Xrotation Yrotation Zrotation
													End Site
													{
														OFFSET 0.032567 0.001515 0.000000
													}
												}
											}
										}
									}
									JOINT pinky_01_l
									{
										OFFSET 0.109890 0.035598 -0.001600
										CHANNELS 6 Xposition Yposition Zposition Xrotation Yrotation Zrotation
										JOINT pinky_02_l
										{
											OFFSET 0.035819 0.001057 0.000000
											CHANNELS 6 Xposition Yposition Zposition Xrotation Yrotation Zrotation
											JOINT pinky_03_l
											{
												OFFSET 0.025683 0.002448 -0.000000
												CHANNELS 6 Xposition Yposition Zposition Xrotation Yrotation Zrotation
												JOINT pinky_04_leaf_l
												{
													OFFSET 0.026731 0.002448 0.000000
													CHANNELS 6 Xposition Yposition Zposition Xrotation Yrotation Zrotation
													End Site
													{
														OFFSET 0.026782 0.001811 0.000000
													}
												}
											}
										}
									}
									JOINT ring_01_l
									{
										OFFSET 0.115267 0.008064 0.000100
										CHANNELS 6 Xposition Yposition Zposition Xrotation Yrotation Zrotation
										JOINT ring_02_l
										{
											OFFSET 0.036562 0.001400 -0.000000
											CHANNELS 6 Xposition Yposition Zposition Xrotation Yrotation Zrotation
											JOINT ring_03_l
											{
												OFFSET 0.033091 0.000552 0.000000
												CHANNELS 6 Xposition Yposition Zposition Xrotation Yrotation Zrotation
												JOINT ring_04_leaf_l
												{
													OFFSET 0.029610 0.000105 0.000000
													CHANNELS 6 Xposition Yposition Zposition Xrotation Yrotation Zrotation
													End Site
													{
														OFFSET 0.029589 0.001117 0.000000
													}
												}
											}
										}
									}
									JOINT thumb_01_l
									{
										OFFSET 0.027300 -0.033600 -0.022800
										CHANNELS 6 Xposition Yposition Zposition Xrotation Yrotation Zrotation
										JOINT thumb_02_l
										{
											OFFSET 0.035686 -0.025978 -0.023293
											CHANNELS 6 Xposition Yposition Zposition Xrotation Yrotation Zrotation
											JOINT thumb_03_l
											{
												OFFSET 0.032562 -0.021217 -0.020255
												CHANNELS 6 Xposition Yposition Zposition Xrotation Yrotation Zrotation
												JOINT thumb_04_leaf_l
												{
													OFFSET 0.022147 -0.013446 -0.013949
													CHANNELS 6 Xposition Yposition Zposition Xrotation Yrotation Zrotation
													End Site
													{
														OFFSET 0.023164 -0.015050 -0.010140
													}
												}
											}
										}
									}
								}
							}
						}
					}
					JOINT clavicle_r
					{
						OFFSET -0.018800 -0.076300 0.143100
						CHANNELS 6 Xposition Yposition Zposition Xrotation Yrotation Zrotation
						JOINT upperarm_r
						{
							OFFSET -0.173100 0.136800 -0.017100
							CHANNELS 6 Xposition Yposition Zposition Xrotation Yrotation Zrotation
							JOINT lowerarm_r
							{
								OFFSET -0.274400 0.004700 -0.000000
								CHANNELS 6 Xposition Yposition Zposition Xrotation Yrotation Zrotation
								JOINT hand_r
								{
									OFFSET -0.272600 -0.004700 -0.000000
									CHANNELS 6 Xposition Yposition Zposition Xrotation Yrotation Zrotation
									JOINT index_01_r
									{
										OFFSET -0.113505 -0.046028 -0.002000
										CHANNELS 6 Xposition Yposition Zposition Xrotation Yrotation Zrotation
										JOINT index_02_r
										{
											OFFSET -0.037675 -0.006459 0.000000
											CHANNELS 6 Xposition Yposition Zposition Xrotation Yrotation Zrotation
											JOINT index_03_r
											{
												OFFSET -0.027202 -0.005757 0.000000
												CHANNELS 6 Xposition Yposition Zposition Xrotation Yrotation Zrotation
												JOINT index_04_leaf_r
												{
													OFFSET -0.023662 -0.004705 0.000000
													CHANNELS 6 Xposition Yposition Zposition Xrotation Yrotation Zrotation
													End Site
													{
														OFFSET -0.023793 -0.003991 0.000000
													}
												}
											}
										}
									}
									JOINT middle_01_r
									{
										OFFSET -0.118041 -0.020533 0.000400
										CHANNELS 6 Xposition Yposition Zposition Xrotation Yrotation Zrotation
										JOINT middle_02_r
										{
											OFFSET -0.041479 -0.001286 0.000000
											CHANNELS 6 Xposition Yposition Zposition Xrotation Yrotation Zrotation
											JOINT middle_03_r
											{
												OFFSET -0.033079 -0.003702 0.000000
												CHANNELS 6 Xposition Yposition Zposition Xrotation Yrotation Zrotation
												JOINT middle_04_leaf_r
												{
													OFFSET -0.032483 -0.002781 -0.000000
													CHANNELS 6 Xposition Yposition Zposition Xrotation Yrotation Zrotation
													End Site
													{
														OFFSET -0.032567 0.001515 0.000000
													}
												}
											}
										}
									}
									JOINT pinky_01_r
									{
										OFFSET -0.109891 0.035598 -0.001600
										CHANNELS 6 Xposition Yposition Zposition Xrotation Yrotation Zrotation
										JOINT pinky_02_r
										{
											OFFSET -0.035819 0.001057 0.000000
											CHANNELS 6 Xposition Yposition Zposition Xrotation Yrotation Zrotation
											JOINT pinky_03_r
											{
												OFFSET -0.025683 0.002448 -0.000000
												CHANNELS 6 Xposition Yposition Zposition Xrotation Yrotation Zrotation
												JOINT pinky_04_leaf_r
												{
													OFFSET -0.026731 0.002448 0.000000
													CHANNELS 6 Xposition Yposition Zposition Xrotation Yrotation Zrotation
													End Site
													{
														OFFSET -0.026782 0.001811 0.000000
													}
												}
											}
										}
									}
									JOINT ring_01_r
									{
										OFFSET -0.115267 0.008064 0.000100
										CHANNELS 6 Xposition Yposition Zposition Xrotation Yrotation Zrotation
										JOINT ring_02_r
										{
											OFFSET -0.036562 0.001400 -0.000000
											CHANNELS 6 Xposition Yposition Zposition Xrotation Yrotation Zrotation
											JOINT ring_03_r
											{
												OFFSET -0.033090 0.000552 0.000000
												CHANNELS 6 Xposition Yposition Zposition Xrotation Yrotation Zrotation
												JOINT ring_04_leaf_r
												{
													OFFSET -0.029610 0.000105 0.000001
													CHANNELS 6 Xposition Yposition Zposition Xrotation Yrotation Zrotation
													End Site
													{
														OFFSET -0.029589 0.001117 0.000000
													}
												}
											}
										}
									}
									JOINT thumb_01_r
									{
										OFFSET -0.027300 -0.033600 -0.022800
										CHANNELS 6 Xposition Yposition Zposition Xrotation Yrotation Zrotation
										JOINT thumb_02_r
										{
											OFFSET -0.035686 -0.025978 -0.023293
											CHANNELS 6 Xposition Yposition Zposition Xrotation Yrotation Zrotation
											JOINT thumb_03_r
											{
												OFFSET -0.032563 -0.021217 -0.020255
												CHANNELS 6 Xposition Yposition Zposition Xrotation Yrotation Zrotation
												JOINT thumb_04_leaf_r
												{
													OFFSET -0.022147 -0.013446 -0.013949
													CHANNELS 6 Xposition Yposition Zposition Xrotation Yrotation Zrotation
													End Site
													{
														OFFSET -0.023164 -0.015050 -0.010140
													}
												}
											}
										}
									}
								}
							}
						}
					}
				}
			}
		}
		JOINT thigh_l
		{
			OFFSET 0.089000 -0.051500 0.015400
			CHANNELS 6 Xposition Yposition Zposition Xrotation Yrotation Zrotation
			JOINT calf_l
			{
				OFFSET 0.000000 0.002800 -0.400300
				CHANNELS 6 Xposition Yposition Zposition Xrotation Yrotation Zrotation
				JOINT foot_l
				{
					OFFSET 0.000000 0.034400 -0.428100
					CHANNELS 6 Xposition Yposition Zposition Xrotation Yrotation Zrotation
					JOINT ball_l
					{
						OFFSET 0.000000 -0.149000 -0.088500
						CHANNELS 6 Xposition Yposition Zposition Xrotation Yrotation Zrotation
						JOINT ball_leaf_l
						{
							OFFSET -0.000000 -0.078900 -0.000000
							CHANNELS 6 Xposition Yposition Zposition Xrotation Yrotation Zrotation
							End Site
							{
								OFFSET 0.000000 -0.078900 -0.000000
							}
						}
					}
				}
			}
		}
		JOINT thigh_r
		{
			OFFSET -0.089000 -0.051500 0.015400
			CHANNELS 6 Xposition Yposition Zposition Xrotation Yrotation Zrotation
			JOINT calf_r
			{
				OFFSET -0.000000 0.002800 -0.400300
				CHANNELS 6 Xposition Yposition Zposition Xrotation Yrotation Zrotation
				JOINT foot_r
				{
					OFFSET 0.000000 0.034400 -0.428100
					CHANNELS 6 Xposition Yposition Zposition Xrotation Yrotation Zrotation
					JOINT ball_r
					{
						OFFSET -0.000000 -0.149000 -0.088500
						CHANNELS 6 Xposition Yposition Zposition Xrotation Yrotation Zrotation
						JOINT ball_leaf_r
						{
							OFFSET 0.000000 -0.078900 -0.000000
							CHANNELS 6 Xposition Yposition Zposition Xrotation Yrotation Zrotation
							End Site
							{
								OFFSET 0.000000 -0.078900 -0.000000
							}
						}
					}
				}
			}
		}
	}
}
MOTION
Frames: 3
Frame Time: 0.041667
0.000000 0.000000 0.000000 -0.000000 0.000000 -0.000000 0.002794 0.331499 0.541539 0.000010 0.000000 0.000000 -0.000000 -0.034500 0.133800 0.000000 -0.000000 0.000000 0.000000 -0.015200 0.123100 10.693258 -0.025980 0.016193 -0.000000 0.004500 0.141200 10.693284 -0.014317 0.045155 -0.000000 0.035467 0.161600 -10.693251 0.035707 -0.014846 0.000000 -0.045467 0.092300 0.000001 -0.000000 -0.000000 -0.000000 -0.002685 0.082543 -0.000001 0.000000 -0.000000 0.018800 -0.076300 0.143100 -2.367511 1.384157 -6.167372 0.173100 0.136800 -0.017100 14.582582 26.667372 -58.686570 0.274400 0.004700 -0.000000 -8.176630 -0.139601 -62.374080 0.272600 -0.004700 0.000000 -63.729968 22.048021 -13.720020 0.113505 -0.046028 -0.002000 0.000007 -0.000017 -0.000034 0.037675 -0.006459 -0.000000 -0.000015 -0.000001 0.000026 0.027202 -0.005757 0.000000 0.000003 0.000003 0.000047 0.023662 -0.004705 0.000000 0.000001 0.000001 -0.000000 0.118040 -0.020533 0.000400 -0.700336 12.216788 10.088109 0.041479 -0.001286 -0.000000 1.632217 28.320893 -4.265921 0.033079 -0.003702 0.000000 0.000002 -0.000010 0.000063 0.032483 -0.002781 -0.000000 -0.000002 -0.000000 -0.000001 0.109890 0.035598 -0.001600 -1.534998 25.475837 3.401844 0.035819 0.001057 0.000000 -5.984766 24.408731 -0.254357 0.025683 0.002448 0.000000 -2.095761 14.330618 -0.339727 0.026731 0.002448 -0.000000 -0.000002 -0.000002 -0.000003 0.115267 0.008064 0.000100 -3.722799 25.718044 11.819476 0.036562 0.001400 0.000000 -0.514160 24.178661 -3.810855 0.033091 0.000552 0.000000 -1.874321 16.655812 2.464566 0.029609 0.000105 -0.000000 0.000000 -0.000000 0.000000 0.027300 -0.033600 -0.022800 1.854144 -7.365360 10.323907 0.035686 -0.025978 -0.023293 2.461486 -1.790924 3.275365 0.032563 -0.021217 -0.020255 7.972590 -4.941017 10.468774 0.022147 -0.013446 -0.013949 0.000003 0.000000 0.000016 -0.018800 -0.076300 0.143100 -1.755342 -1.720531 -5.728481 -0.173100 0.136800 -0.017100 8.985388 -14.120164 66.746869 -0.274400 0.004700 0.000000 -11.703416 0.199128 66.885030 -0.272600 -0.004700 -0.000000 -59.470860 11.772624 13.651867 -0.113505 -0.046028 -0.002000 -0.000018 0.000042 0.000023 -0.037675 -0.006459 -0.000000 -0.000013 -0.000000 -0.000062 -0.027201 -0.005756 0.000000 -0.000001 0.000003 0.000009 -0.023662 -0.004705 0.000000 0.000000 -0.000001 0.000002 -0.118041 -0.020533 0.000401 0.000012 0.000058 -0.000015 -0.041479 -0.001286 0.000000 1.204800 -10.639702 0.112121 -0.033079 -0.003702 0.000000 2.592396 -27.849152 0.642688 -0.032483 -0.002781 -0.000000 0.000000 0.000002 0.000001 -0.109891 0.035598 -0.001600 -0.086087 -0.820513 -8.599131 -0.035819 0.001057 0.000000 -3.782580 -24.614742 0.234975 -0.025683 0.002448 0.000000 -2.095764 -14.330606 0.339632 -0.026731 0.002448 0.000000 -0.000000 -0.000001 -0.000000 -0.115267 0.008064 0.000101 -0.294237 -2.086053 -11.670849 -0.036562 0.001400 0.000000 -2.410489 -24.146824 3.811631 -0.033091 0.000552 0.000000 -1.874292 -16.655865 -2.464451 -0.029609 0.000105 0.000000 0.000000 0.000003 0.000000 -0.027300 -0.033600 -0.022800 -0.000018 0.000019 0.000029 -0.035686 -0.025978 -0.023293 2.389048 1.740921 -3.319273 -0.032563 -0.021217 -0.020255 7.972601 4.941070 -10.468796 -0.022147 -0.013447 -0.013949 0.000011 0.000001 0.000011 0.089000 -0.051500 0.015400 -86.822728 -10.044055 -9.637954 -0.000000 0.002800 -0.400300 80.377823 10.768742 1.877309 -0.000000 0.034400 -0.428100 6.321529 -0.731923 -10.161435 0.000000 -0.149000 -0.088500 -0.000000 0.000002 -0.000005 -0.000000 -0.078900 -0.000000 0.000000 0.000000 -0.000000 -0.089000 -0.051500 0.015400 -85.867670 4.459761 4.207994 0.000000 0.002800 -0.400300 79.266886 5.714987 1.108634 0.000000 0.034400 -0.428100 6.486476 -10.321980 0.441115 -0.000000 -0.149000 -0.088500 -0.000000 0.000002 -0.000000 -0.000000 -0.078900 -0.000000 -0.000000 -0.000000 -0.000000 
0.000000 0.000000 0.000000 -0.000000 0.000000 -0.000000 0.002794 0.331499 0.541539 0.000010 0.000000 0.000000 -0.000000 -0.034500 0.133800 0.000000 -0.000000 0.000000 0.000000 -0.015200 0.123100 10.679506 -0.028947 0.016710 -0.000000 0.004500 0.141200 10.679527 -0.017039 0.046515 -0.000000 0.035467 0.161600 -10.679493 0.038657 -0.014151 0.000000 -0.045467 0.092300 0.000001 0.000000 -0.000000 0.000000 -0.002685 0.082543 -0.000001 0.000000 -0.000000 0.018800 -0.076300 0.143100 -2.367509 1.384157 -6.167385 0.173100 0.136800 -0.017100 14.497816 26.459343 -58.793319 0.274400 0.004700 -0.000000 -8.478713 -0.144759 -62.229833 0.272600 -0.004700 -0.000000 -63.634571 22.185055 -13.769782 0.113505 -0.046028 -0.002000 0.000007 -0.000018 -0.000035 0.037675 -0.006459 -0.000000 -0.000016 -0.000008 0.000020 0.027201 -0.005757 -0.000000 -0.000002 0.000005 0.000042 0.023662 -0.004706 0.000000 -0.000000 0.000005 -0.000000 0.118041 -0.020533 0.000400 -0.714289 12.579997 10.024305 0.041479 -0.001286 -0.000000 1.665926 28.587342 -4.274144 0.033079 -0.003702 0.000000 0.036221 0.423133 -0.000075 0.032483 -0.002781 0.000000 0.000000 -0.000001 -0.000003 0.109890 0.035598 -0.001600 -1.541744 25.794947 3.344622 0.035819 0.001057 0.000000 -6.033740 24.693408 -0.238401 0.025683 0.002448 0.000000 -2.122094 14.674752 -0.329172 0.026731 0.002448 0.000000 -0.000002 0.000003 -0.000002 0.115267 0.008064 0.000100 -3.759779 26.003457 11.794968 0.036562 0.001400 0.000000 -0.521284 24.468009 -3.795971 0.033090 0.000552 -0.000000 -1.880449 16.988772 2.455736 0.029609 0.000105 -0.000000 -0.000000 -0.000001 -0.000001 0.027300 -0.033600 -0.022800 1.752673 -7.223337 10.035594 0.035686 -0.025978 -0.023294 2.502304 -1.819110 3.250670 0.032563 -0.021217 -0.020255 7.972592 -4.941016 10.468774 0.022147 -0.013446 -0.013949 0.000003 0.000006 0.000013 -0.018800 -0.076300 0.143100 -1.755341 -1.720531 -5.728481 -0.173100 0.136800 -0.017100 9.003575 -14.164357 66.688533 -0.274400 0.004700 0.000000 -11.737851 0.199647 67.051482 -0.272600 -0.004700 -0.000000 -59.299532 11.823509 13.805080 -0.113505 -0.046028 -0.002000 -0.000014 0.000037 0.000018 -0.037675 -0.006459 -0.000000 -0.000013 -0.000008 0.000017 -0.027201 -0.005757 0.000000 0.000002 0.000001 0.000046 -0.023662 -0.004706 0.000000 -0.000000 -0.000003 0.000003 -0.118041 -0.020533 0.000401 0.004652 -0.155179 -0.131317 -0.041479 -0.001286 0.000000 1.208375 -10.864647 0.155823 -0.033079 -0.003702 0.000000 2.553645 -27.494559 0.624704 -0.032483 -0.002781 -0.000000 -0.000000 0.000008 0.000000 -0.109891 0.035598 -0.001600 -0.118393 -1.134299 -8.538907 -0.035819 0.001057 0.000000 -3.823210 -24.610982 0.235312 -0.025683 0.002448 -0.000000 -2.095783 -14.330596 0.339655 -0.026731 0.002448 0.000000 0.000000 0.000000 -0.000000 -0.115267 0.008064 0.000101 -0.336439 -2.388570 -11.648284 -0.036562 0.001400 -0.000000 -2.392988 -24.147108 3.811595 -0.033091 0.000552 0.000000 -1.874287 -16.655888 -2.464434 -0.029610 0.000105 0.000000 0.000000 0.000001 0.000000 -0.027300 -0.033600 -0.022800 -0.000002 -0.000006 0.000021 -0.035686 -0.025978 -0.023293 2.389027 1.740940 -3.319238 -0.032563 -0.021217 -0.020255 7.972573 4.941068 -10.468750 -0.022147 -0.013447 -0.013949 0.000011 -0.000002 0.000010 0.089000 -0.051500 0.015400 -86.822728 -10.044055 -9.637954 -0.000000 0.002800 -0.400300 80.377823 10.768742 1.877309 -0.000000 0.034400 -0.428100 6.321529 -0.731923 -10.161435 0.000000 -0.149000 -0.088500 -0.000000 0.000002 -0.000005 -0.000000 -0.078900 -0.000000 0.000000 0.000000 -0.000000 -0.089000 -0.051500 0.015400 -85.869316 4.469279 4.217097 0.000000 0.002800 -0.400300 79.267262 5.696210 1.104922 0.000000 0.034400 -0.428100 6.488383 -10.312561 0.451803 -0.000000 -0.149000 -0.088500 -0.000000 0.000002 -0.000000 -0.000000 -0.078900 -0.000000 -0.000000 -0.000000 -0.000000 
0.000000 0.000000 0.000000 -0.000000 0.000000 -0.000000 0.002794 0.331499 0.541539 0.000010 0.000000 0.000000 -0.000000 -0.034500 0.133800 0.000000 -0.000000 0.000000 0.000000 -0.015200 0.123100 10.633589 -0.038851 0.018426 0.000000 0.004500 0.141200 10.633610 -0.026130 0.051035 -0.000000 0.035467 0.161600 -10.633564 0.048499 -0.011828 0.000000 -0.045467 0.092300 -0.000000 0.000000 0.000000 -0.000000 -0.002685 0.082543 0.000001 -0.000000 -0.000000 0.018800 -0.076300 0.143100 -2.367509 1.384157 -6.167374 0.173100 0.136800 -0.017100 14.300525 25.965900 -59.064751 0.274400 0.004700 0.000000 -9.287686 -0.158424 -61.871699 0.272600 -0.004700 -0.000000 -63.301271 22.566259 -13.916584 0.113505 -0.046028 -0.002000 0.000011 -0.000016 -0.000032 0.037675 -0.006459 -0.000000 -0.000016 -0.000006 0.000026 0.027202 -0.005757 -0.000000 -0.000002 0.000002 0.000046 0.023662 -0.004706 0.000000 -0.000002 0.000000 0.000002 0.118040 -0.020533 0.000400 -0.752167 13.626194 9.840450 0.041478 -0.001286 -0.000000 1.765527 29.354565 -4.299441 0.033079 -0.003703 0.000000 0.140610 1.641992 -0.002005 0.032483 -0.002781 -0.000000 0.000000 -0.000000 -0.000005 0.109891 0.035598 -0.001600 -1.559007 26.714045 3.178130 0.035819 0.001057 0.000000 -6.174480 25.513451 -0.191241 0.025683 0.002448 -0.000000 -2.198622 15.666017 -0.297993 0.026731 0.002448 0.000000 -0.000002 -0.000000 -0.000002 0.115267 0.008064 0.000100 -3.865628 26.825742 11.723713 0.036562 0.001400 0.000000 -0.541428 25.301548 -3.753169 0.033091 0.000552 0.000000 -1.897491 17.947832 2.430494 0.029609 0.000105 -0.000000 0.000000 0.000001 0.000001 0.027300 -0.033600 -0.022800 1.475426 -6.822965 9.234577 0.035686 -0.025978 -0.023293 2.612590 -1.895330 3.184086 0.032563 -0.021217 -0.020255 7.972588 -4.941020 10.468774 0.022147 -0.013446 -0.013949 0.000006 0.000007 0.000010 -0.018800 -0.076300 0.143100 -1.755339 -1.720531 -5.728484 -0.173100 0.136800 -0.017100 9.063720 -14.299676 66.537319 -0.274400 0.004700 0.000000 -11.830540 0.201192 67.495178 -0.272600 -0.004700 -0.000000 -58.810695 11.953656 14.223890 -0.113505 -0.046028 -0.002000 -0.000001 0.000095 -0.000027 -0.037675 -0.006459 -0.000000 -0.000015 0.000001 0.000040 -0.027201 -0.005757 0.000000 -0.000000 0.000006 -0.000091 -0.023662 -0.004706 0.000000 0.000001 0.000002 -0.000003 -0.118041 -0.020533 0.000401 0.015784 -0.592045 -0.500375 -0.041479 -0.001286 0.000000 1.218398 -11.497714 0.279573 -0.033079 -0.003702 0.000000 2.445962 -26.496737 0.575815 -0.032483 -0.002781 -0.000000 -0.000000 0.000003 0.000000 -0.109891 0.035598 -0.001600 -0.207572 -2.017353 -8.368648 -0.035819 0.001057 0.000000 -3.935761 -24.600321 0.236040 -0.025683 0.002448 0.000000 -2.095783 -14.330574 0.339586 -0.026731 0.002448 0.000000 -0.000001 0.000000 -0.000000 -0.115267 0.008064 0.000101 -0.454690 -3.240001 -11.587926 -0.036562 0.001400 -0.000000 -2.342734 -24.147622 3.811619 -0.033090 0.000552 0.000000 -1.874295 -16.655889 -2.464502 -0.029610 0.000105 0.000000 0.000001 -0.000001 -0.000001 -0.027300 -0.033600 -0.022800 0.000005 0.000017 -0.000012 -0.035686 -0.025978 -0.023293 2.389015 1.740914 -3.319215 -0.032563 -0.021217 -0.020255 7.972582 4.941081 -10.468775 -0.022147 -0.013447 -0.013949 0.000012 0.000003 0.000011 0.089000 -0.051500 0.015400 -86.822728 -10.044055 -9.637954 -0.000000 0.002800 -0.400300 80.377823 10.768742 1.877309 -0.000000 0.034400 -0.428100 6.321529 -0.731923 -10.161435 0.000000 -0.149000 -0.088500 -0.000000 0.000002 -0.000005 -0.000000 -0.078900 -0.000000 0.000000 0.000000 -0.000000 -0.089000 -0.051500 0.015400 -85.874288 4.497222 4.243835 0.000000 0.002800 -0.400300 79.268375 5.641080 1.094017 0.000000 0.034400 -0.428100 6.493980 -10.284906 0.483182 -0.000000 -0.149000 -0.088500 -0.000000 0.000002 -0.000001 -0.000000 -0.078900 -0.000000 0.000000 0.000000 -0.000000 
